{"title":"Our World The Lusitanias 100 Year Secret PDTV x264-TVC","uid":12004076,"size":287663345,"categoryP":"video","categoryS":"tv_shows","magnet":"?xt=urn:btih:ffc67a948c0b725350c7a2052af7fa7c724cff52&amp;dn=Our+World+The+Lusitanias+100+Year+Secret+PDTV+x264-TVC&amp;tr=udp%3A%2F%2Ftracker.openbittorrent.com%3A80&amp;tr=udp%3A%2F%2Fopen.demonii.com%3A1337&amp;tr=udp%3A%2F%2Ftracker.coppersurfer.tk%3A6969&amp;tr=udp%3A%2F%2Fexodus.desync.com%3A6969","seeders":1,"leechers":0,"uploader":"toots2boots","files":1,"time":1433840703,"description":"Our World -\nThe Lusitania's 100-Year Secret\nDuncan Kennedy finds out why mystery still surrounds the sinking of RMS Lusitania, and pieces together what happened on that fateful last journey.\n\nGeneral\nComplete name                            : M:PostsOur World The Lusitanias 100 Year Secret PDTV x264-TVCOur.World.The.Lusitanias.100.Year.Secret.PDTV.x264.TVC.mp4\nFormat                                   : MPEG-4\nFormat profile                           : Base Media\nCodec ID                                 : isom\nFile size                                : 274 MiB\nDuration                                 : 25mn 9s\nOverall bit rate mode                    : Variable\nOverall bit rate                         : 1 525 Kbps\nMovie name                               : The Lusitania's 100-Year Secret\nAlbum                                    : BBC TV\nAlbum/Performer                          : BBC TV\nTrack name/Position                      : 1\nTrack name/Total                         : 0\nPerformer                                : BBC News Channel\nComposer                                 : BBC iPlayer\nGenre                                    : News\nRecorded date                            : 2015-06-06T04:30:00+01:00\nWriting application                      : Lavf54.63.104\nCopyright                                : 2015 British Broadcasting Corporation, all rights reserved\nComment                                  : Duncan Kennedy finds out why mystery still surrounds the sinking of RMS Lusitania.\n\nVideo\nID                                       : 1\nFormat                                   : AVC\nFormat/Info                              : Advanced Video Codec\nFormat profile                           : &lt;a class=&quot;__cf_email__&quot; href=&quot;/cdn-cgi/l/email-protection&quot; data-cfemail=&quot;115c70787f515d223f21&quot;&gt;[email&amp;#160;protected]&lt;/a&gt;&lt;script data-cfhash='f9e31' type=&quot;text/javascript&quot;&gt;\n/* &lt;![CDATA[ */!function(){try{var t=&quot;currentScript&quot;in document?document.currentScript:function(){for(var t=document.getElementsByTagName(&quot;script&quot;),e=t.length;e--;)if(t[e].getAttribute(&quot;data-cfhash&quot;))return t[e]}();if(t&amp;&amp;t.previousSibling){var e,r,n,i,c=t.previousSibling,a=c.getAttribute(&quot;data-cfemail&quot;);if(a){for(e=&quot;&quot;,r=parseInt(a.substr(0,2),16),n=2;a.length-n;n+=2)i=parseInt(a.substr(n,2),16)^r,e+=String.fromCharCode(i);e=document.createTextNode(e),c.parentNode.replaceChild(e,c)}t.parentNode.removeChild(t);}}catch(u){}}()/* ]]&gt; */&lt;/script&gt;\nFormat settings, CABAC                   : Yes\nFormat settings, ReFrames                : 1 frame\nCodec ID                                 : avc1\nCodec ID/Info                            : Advanced Video Coding\nDuration                                 : 25mn 9s\nDuration_FirstFrame                      : 40ms\nBit rate                                 : 1 428 Kbps\nWidth                                    : 720 pixels\nHeight                                   : 404 pixels\nDisplay aspect ratio                     : 16:9\nFrame rate mode                          : Constant\nFrame rate                               : 25.000 fps\nColor space                              : YUV\nChroma subsampling                       : 4:2:0\nBit depth                                : 8 bits\nScan type                                : Progressive\nBits/(Pixel*Frame)                       : 0.196\nStream size                              : 252 MiB (92%)\nWriting library                          : x264 core 129\nEncoding settings                        : cabac=1 / ref=1 / deblock=1:0:0 / analyse=0x1:0x131 / me=dia / subme=2 / psy=1 / psy_rd=1.00:0.00 / mixed_ref=0 / me_range=16 / chroma_me=1 / trellis=0 / 8x8dct=0 / cqm=0 / deadzone=21,11 / fast_pskip=1 / chroma_qp_offset=0 / threads=2 / lookahead_threads=1 / sliced_threads=0 / nr=0 / decimate=1 / interlaced=0 / bluray_compat=0 / constrained_intra=0 / bframes=0 / weightp=2 / keyint=250 / keyint_min=25 / scenecut=40 / intra_refresh=0 / rc_lookahead=40 / rc=abr / mbtree=1 / bitrate=1428 / ratetol=1.0 / qcomp=0.60 / qpmin=10 / qpmax=51 / qpstep=4 / ip_ratio=1.41 / aq=1:1.00\n\nAudio\nID                                       : 2\nFormat                                   : AAC\nFormat/Info                              : Advanced Audio Codec\nFormat profile                           : LC\nCodec ID                                 : 40\nDuration                                 : 25mn 9s\nDuration_FirstFrame                      : 64ms\nBit rate mode                            : Variable\nBit rate                                 : 118 Kbps\nMaximum bit rate                         : 192 Kbps\nChannel(s)                               : 2 channels\nChannel positions                        : Front: L R\nSampling rate                            : 48.0 KHz\nCompression mode                         : Lossy\nStream size                              : 21.2 MiB (8%)","torrent":{"xt":"urn:btih:ffc67a948c0b725350c7a2052af7fa7c724cff52","amp;dn":"Our+World+The+Lusitanias+100+Year+Secret+PDTV+x264-TVC","amp;tr":["udp%3A%2F%2Ftracker.openbittorrent.com%3A80","udp%3A%2F%2Fopen.demonii.com%3A1337","udp%3A%2F%2Ftracker.coppersurfer.tk%3A6969","udp%3A%2F%2Fexodus.desync.com%3A6969"],"infoHash":"ffc67a948c0b725350c7a2052af7fa7c724cff52","infoHashBuffer":{"type":"Buffer","data":[255,198,122,148,140,11,114,83,80,199,162,5,42,247,250,124,114,76,255,82]},"announce":[],"urlList":[]}}